<?xml version="1.0" encoding="utf-8"?>
<!-- Generator: Adobe Illustrator 18.0.0, SVG Export Plug-In . SVG Version: 6.00 Build 0)  -->
<!DOCTYPE svg PUBLIC "-//W3C//DTD SVG 1.1//EN" "http://www.w3.org/Graphics/SVG/1.1/DTD/svg11.dtd">
<svg version="1.1" id="Layer_1" xmlns="http://www.w3.org/2000/svg" xmlns:xlink="http://www.w3.org/1999/xlink" x="0px" y="0px"
	 viewBox="0 0 576 124" enable-background="new 0 0 576 124" xml:space="preserve">
<rect x="27.1" y="31" fill="none" width="587.5" height="356.9"/>
<text transform="matrix(1 0 0 1 27.099 83.5179)"><tspan x="0" y="0" fill="#0066CC" font-family="'Raleway-Light'" font-size="72">talent e </tspan><tspan x="265.5" y="0" fill="#0066CC" font-family="'Raleway-Light'" font-size="50"> </tspan><tspan x="278.5" y="0" fill="#0066CC" font-family="'Raleway-Light'" font-size="72">change</tspan></text>
<circle fill="none" stroke="#0066CC" stroke-miterlimit="10" cx="289.8" cy="64.6" r="4.5"/>
<line fill="none" stroke="#0066CC" stroke-width="3" stroke-miterlimit="10" x1="286.7" y1="61.3" x2="259.4" y2="25.8"/>
<polygon fill="#0066CC" stroke="#0066CC" stroke-miterlimit="10" points="256.8,32.9 255.2,19.4 266.7,25.7 259.7,26.4 "/>
<circle fill="#FFFFFF" cx="259.2" cy="25.1" r="1.3"/>
<line fill="none" stroke="#0066CC" stroke-width="3" stroke-miterlimit="10" x1="292.2" y1="68.4" x2="319.5" y2="103.8"/>
<polygon fill="#0066CC" stroke="#0066CC" stroke-miterlimit="10" points="322,96.8 323.7,110.3 312.1,104 319.1,103.3 "/>
<circle fill="#FFFFFF" cx="319.6" cy="104.6" r="1.3"/>
<line fill="none" stroke="#0066CC" stroke-width="3" stroke-miterlimit="10" x1="286.8" y1="67.4" x2="260.1" y2="103.4"/>
<polygon fill="#0066CC" stroke="#0066CC" stroke-miterlimit="10" points="267.6,103.9 255,109.2 258,96.4 260.6,102.9 "/>
<circle fill="#FFFFFF" cx="259.4" cy="103.8" r="1.3"/>
<line fill="none" stroke="#0066CC" stroke-width="3" stroke-miterlimit="10" x1="292" y1="61.2" x2="318.7" y2="25.3"/>
<polygon fill="#0066CC" stroke="#0066CC" stroke-miterlimit="10" points="311.2,24.8 323.8,19.4 320.8,32.3 318.2,25.7 "/>
<circle fill="#FFFFFF" cx="319.4" cy="24.9" r="1.3"/>
</svg>
